<?xml version="1.0" encoding="UTF-8"?>
<svg width="20px" height="20px" viewBox="0 0 20 20" version="1.1" xmlns="http://www.w3.org/2000/svg" xmlns:xlink="http://www.w3.org/1999/xlink">
    <!-- Generator: Sketch 50.2 (55047) - http://www.bohemiancoding.com/sketch -->
    <title>search_left [#1504]</title>
    <desc>Created with Sketch.</desc>
    <defs></defs>
    <g id="Icons" stroke="none" stroke-width="1" fill="none" fill-rule="evenodd">
        <g id="Utils" transform="translate(-260.000000, -140.000000)" fill="#FFFFFF">
            <g id="icons" transform="translate(20.000000, 20.000000)">
                <path d="M260.0026,138.5855 L258.5886,139.9995 L254.3456,135.7575 L255.7596,134.3425 L260.0026,138.5855 Z M248.0026,133.9995 C244.6946,133.9995 242.0026,131.3085 242.0026,127.9995 C242.0026,124.6915 244.6946,121.9995 248.0026,121.9995 C251.3106,121.9995 254.0026,124.6915 254.0026,127.9995 C254.0026,131.3085 251.3106,133.9995 248.0026,133.9995 L248.0026,133.9995 Z M248.0026,119.9995 C243.5846,119.9995 240.0026,123.5815 240.0026,127.9995 C240.0026,132.4175 243.5846,135.9995 248.0026,135.9995 C252.4206,135.9995 256.0026,132.4175 256.0026,127.9995 C256.0026,123.5815 252.4206,119.9995 248.0026,119.9995 L248.0026,119.9995 Z" id="search_left-[#1504]"></path>
            </g>
        </g>
    </g>
</svg>