<?xml version="1.0" encoding="UTF-8"?>
<svg width="20px" height="14px" viewBox="0 0 20 14" version="1.1" xmlns="http://www.w3.org/2000/svg" xmlns:xlink="http://www.w3.org/1999/xlink">
    <!-- Generator: Sketch 50.2 (55047) - http://www.bohemiancoding.com/sketch -->
    <title>youtube [#168]</title>
    <desc>Created with Sketch.</desc>
    <defs></defs>
    <g id="Icons" stroke="none" stroke-width="1" fill="none" fill-rule="evenodd">
        <g id="Social" transform="translate(-260.000000, -63.000000)" fill="#FFFFFF">
            <g id="icons" transform="translate(20.000000, 19.000000)">
                <path d="M248,54 L248,48 C249.858391,49.0023103 251.297714,49.9704994 253,51.0143949 C251.595986,51.9068776 249.858391,52.9081216 248,54 M259.090998,45.182887 C258.747343,44.7301264 258.161634,44.3780901 257.538073,44.2614095 C255.705243,43.9133623 244.270974,43.912365 242.439141,44.2614095 C241.939097,44.3551529 241.493839,44.5815332 241.111335,44.9335695 C239.49964,46.4294745 240.004664,54.4515145 240.393145,55.7509573 C240.556505,56.3134176 240.767679,56.7193064 241.033639,56.9855775 C241.376298,57.3376139 241.845463,57.5799505 242.384355,57.6886529 C243.893451,58.0007984 251.668037,58.1753207 257.506198,57.7355246 C258.044094,57.6417812 258.520231,57.3914664 258.895762,57.0244711 C260.385932,55.5345497 260.28433,47.0617437 259.090998,45.182887" id="youtube-[#168]"></path>
            </g>
        </g>
    </g>
</svg>